<svg xmlns="http://www.w3.org/2000/svg" height="512" viewBox="1 -104 512 511" width="512"><path d="M203.844 227.586h156.14c17.68-52.05 91.45-51.55 108.957 0h13.047v-75.027c0-9.348-7.66-17.008-17.004-17.008H349.941c-8.289 0-15.007-6.719-15.007-15.004V30.512H77.84v18.004h27.59c19.754 0 19.754 30.011 0 30.011H77.84v29.012h72.027c19.758 0 19.758 30.012 0 30.012H77.84v90.031h17.05c17.676-52.05 91.45-51.543 108.954.004zM47.828 78.527H29.824c-19.758 0-19.758-30.011 0-30.011h18.004V15.504C47.828 7.219 54.547.5 62.836.5 85.8.5 338.187.598 338.187.5c41.079 0 76.86 20.336 97.915 55.668l29.421 49.375C491.2 105.832 512 126.836 512 152.555v90.035c0 8.285-6.719 15.004-15.004 15.004h-26.16c-5.379 26.484-28.781 46.015-56.371 46.015s-50.992-19.53-56.371-46.015H205.738c-5.379 26.484-28.781 46.015-56.37 46.015-27.59 0-50.993-19.53-56.372-46.015h-30.16c-8.29 0-15.008-6.719-15.008-15.004v-45.02H14.816c-19.754 0-19.754-30.007 0-30.007h33.012V137.55H14.816c-19.754 0-19.754-30.012 0-30.012h33.012zm386.09 148.11c10.742 10.742 10.742 28.164 0 38.906-17.281 17.281-46.965 4.988-46.965-19.453s29.684-36.735 46.965-19.453zm-3.223-121.098h-65.75V34.58c19.145 6.136 34.801 19.019 45.48 36.944zM168.82 226.637c10.743 10.742 10.743 28.164 0 38.906-17.28 17.281-46.965 4.988-46.965-19.453.004-24.442 29.684-36.735 46.965-19.453zm0 0" fill-rule="evenodd" data-original="#000000" class="active-path" data-old_color="#000000" fill="#FFF"/></svg>